<?xml version="1.0" encoding="UTF-8" standalone="no"?>
<!-- Created with Inkscape (http://www.inkscape.org/) -->

<svg
   version="1.1"
   id="svg1"
   width="2400"
   height="2610"
   viewBox="0 0 2400 2610"
   xmlns="http://www.w3.org/2000/svg"
   xmlns:svg="http://www.w3.org/2000/svg">
  <defs
     id="defs1" />
  <g
     id="g2"
     transform="matrix(0.99862287,0,0,0.99862355,-73.351022,-64.613333)">
    <path
       style="fill:#dd195c;fill-opacity:1;stroke-width:0.565073"
       d="m 1737.6102,2162.2443 c -61.1035,-38.4923 -83.0969,-110.1395 -72.2528,-163.7801 17.8783,-88.4373 87.8298,-121.35 124.0465,-129.4315 25.0272,-5.5847 94.1389,-14.8115 154.0271,34.3883 56.3091,46.2596 83.2689,145.5297 19.5053,225.2244 -23.6,29.4966 -61.7903,50.2904 -105.0551,57.2 -42.5671,6.7984 -85.4825,-1.6861 -120.271,-23.6011 z m 170.2932,-107.2296 c 7.9755,-26.4191 6.8254,-74.3382 -33.6462,-101.5257 -27.728,-18.6264 -79.2069,-19.2404 -106.0052,17.5546 -24.0469,33.017 -20.3343,75.0125 -5.826,99.376 35.7862,60.0969 124.5832,53.8069 145.4774,-15.4049 z m 239.2602,131.5768 c -13.4402,0.2161 -32.0738,-5.1079 -39.7256,-21.0377 -30.5916,-73.7853 -57.7789,-151.4374 -82.1005,-227.5896 -7.5317,-24.4117 -8.5875,-31.189 -6.2115,-39.8765 6.4588,-23.6164 29.6259,-36.0854 55.0293,-29.6177 13.5782,3.457 22.921,13.8544 29.9267,33.3044 10.1662,28.2245 43.848,152.3922 47.1152,152.3922 3.3589,0 42.2302,-141.6477 52.1409,-161.4395 8.2264,-17.706 24.0576,-25.6577 42.4811,-26.1393 17.9647,-0.4272 36.7689,1.3031 49.7154,34.8887 7.8428,20.3446 45.3039,152.6901 49.4031,152.6901 4.036,0 40.2979,-132.7656 50.9446,-160.874 8.3487,-22.9944 32.8375,-30.7199 55.0119,-23.7758 2.3077,0.8388 25.9097,10.0841 25.8676,37.3468 -0.015,9.2952 -0.09,9.6894 -4.6267,24.0322 -61.957,180.6137 -79.7224,224.0667 -80.0912,224.8059 -9.332,21.3516 -25.5712,31.3379 -44.885,31.1714 -15.7617,-0.182 -31.8148,-13.9841 -38.8436,-23.1194 -27.9768,-36.361 -48.5368,-137.9209 -60.2683,-167.4501 -12.1368,18.55 -45.3932,140.4161 -61.0689,169.3843 -9.6319,11.6005 -12.2229,20.1566 -39.8145,20.9036 z m -902.8333,-31.0111 c -0.1342,-5.0562 -0.5349,-73.6639 -0.3995,-182.5574 0.2239,-180.1014 -0.234,-163.6874 4.8557,-174.0703 9.1307,-18.6264 26.1541,-27.4369 50.6225,-26.1997 17.2649,0.873 29.1848,6.9966 42.2618,21.7107 10.7861,12.1365 173.7002,229.9521 175.8041,227.8449 0.053,-70.3533 -0.7731,-143.7077 -0.6625,-215.5314 1.4336,-11.8381 19.7218,-34.2992 44.8103,-34.95 15.9765,-0.4145 33.1186,12.0103 39.6035,25.8582 2.7233,5.8154 3.9814,40.3133 4.0559,178.8252 l 0.09,167.282 c -0.018,18.0751 -4.82,30.9636 -32.1163,37.1519 -22.229,3.7165 -36.4249,2.1187 -52.5448,-13.4027 -52.2522,-51.0636 -188.4934,-246.9819 -188.5233,-242.866 -0.5641,77.7764 0.2039,155.8655 0,230.9046 -0.069,25.2824 -32.3131,28.388 -46.9544,28.3883 -16.4602,3e-4 -40.2724,-4.635 -40.903,-28.3883 z M 497.75209,1575.7645 c -0.87381,-0.2065 -1.38501,-0.8405 -1.59564,-1.979 -0.6273,-3.3912 0.40981,-791.8544 1.05243,-800.10799 C 508.08449,633.99404 562.29966,402.43512 784.31549,227.31009 938.55944,105.6429 1086.4774,79.431127 1161.4937,69.979265 c 54.2198,-6.831547 120.7401,-7.042387 176.5962,-0.559731 366.6282,42.550796 597.3969,326.874756 652.4316,588.338226 24.3356,115.61413 55.2898,409.29094 -174.6663,665.34124 -107.8008,120.0334 -280.2673,240.1163 -542.9863,252.1903 -24.3971,1.1212 -774.07165,0.7222 -775.11681,0.4752 z m 727.68341,-343.2128 c 116.1821,1.1659 209.3615,-29.8564 300.1253,-106.2632 172.1846,-153.89659 176.3861,-403.46845 47.4945,-562.68019 C 1474.092,441.3648 1328.9862,396.0684 1203.1305,411.2402 957.95366,440.79599 859.54765,646.55662 844.01086,766.23409 c -7.28434,155.09792 -3.56964,311.39671 -3.40741,466.88141 128.27133,-0.61 256.56495,0.9775 384.83205,-0.5639 z m -156.1491,-230.4643 c -0.7415,-1.953 -0.7253,-182.58818 0.017,-193.63397 5.3437,-79.47359 74.2898,-179.93084 198.4511,-170.74798 90.7405,6.71106 167.7396,86.84747 167.6112,182.62268 -0.1195,89.44623 -68.8265,172.10352 -165.3205,181.48197 -66.5738,2.9222 -133.5331,1.7263 -200.2083,1.7306 z"
       id="path1" />
    <path
       style="fill:#000000;stroke-width:0.565073"
       d="m 1160.0402,2677.588 c -16.3944,-4.513 -42.5424,-36.4717 -48.1002,-36.4717 -5.5316,0 -29.165,24.0791 -79.6409,33.3648 -22.2698,4.0973 -52.97699,4.0736 -74.2414,-0.057 -27.41461,-5.3253 -84.98807,-23.8891 -121.8158,-87.8751 -35.67847,-61.9886 -40.63777,-163.2011 31.43618,-235.5605 56.72562,-56.9513 138.90762,-57.5453 184.76772,-44.594 72.3585,20.4339 129.2497,90.3988 132.0625,182.864 1.6354,53.7619 -27.7304,107.1917 -42.3637,122.3921 -0.2905,0.4005 23.6208,18.6475 33.3488,28.6967 9.0681,9.3677 15.2089,17.2473 -0.7323,33.6675 -3.9107,4.0279 -8.7775,5.2094 -14.7209,3.5732 z m -78.3021,-63.7153 c -9.401,-11.8859 -51.1413,-43.0633 -60.8043,-57.0103 -4.6291,-6.6814 -5.5463,-11.1448 0.5155,-19.3465 7.0315,-9.8691 14.0469,-14.9519 27.238,-7.7475 9.2706,5.0632 60.7937,53.9535 62.5503,53.9535 14.7068,-13.9807 48.4973,-86.9906 15.6545,-160.7235 -9.8245,-22.0566 -45.1964,-84.5285 -130.71825,-84.6447 -110.10673,-0.1559 -147.27761,107.6716 -142.05282,159.7006 3.12629,31.1306 19.57612,111.3997 105.91306,136.2128 50.89801,14.6288 91.83841,-3.6856 121.70401,-20.3944 z m 430.5118,61.2167 c -7.4958,-1.2317 -16.7073,-9.3944 -28.9475,-25.6517 -32.6167,-36.6529 -58.8908,-82.677 -91.4514,-119.0452 -34.9421,-0.6922 -69.9132,-0.3749 -104.8651,-0.3258 l -0.2822,64.7136 c -0.317,72.6739 0.073,66.6881 -4.6469,71.334 -5.4438,5.3587 -11.6906,8.0275 -17.9404,7.6647 -6.824,-0.3963 -13.4416,-4.5646 -16.2791,-10.2539 -3.052,-6.1196 -2.9,3.0493 -2.9072,-175.366 -0.011,-108.5555 0.3559,-157.5239 0.5589,-167.1542 0.119,-5.6433 -1.9634,-13.3153 11.2281,-13.5674 3.5148,-0.067 117.8193,-2.3706 142.0762,-1.6535 38.8462,1.1484 56.2959,4.5965 77.9191,15.3963 52.4662,26.2055 65.1095,76.8946 54.8544,122.3758 -15.7225,69.7307 -94.6572,75.6101 -94.6572,77.4021 0,0.3839 79.4935,101.3658 91.5249,118.06 4.6209,6.4116 6.5661,10.5129 7.0995,14.3842 1.916,13.905 -13.3659,23.3169 -23.2841,21.6872 z m -97.6454,-184.0088 c 10.5129,-1.1437 82.778,-10.4155 77.1577,-82.3694 -3.4813,-44.5668 -43.7878,-60.6005 -63.3301,-64.4201 -46.356,-3.8692 -94.0633,-1.4766 -140.7195,-0.1233 -1.1209,0.2339 -1.6336,72.4476 -0.9838,148.3422 42.4894,-2.0068 85.4647,2.4119 127.87,-1.4294 z M 588.75447,2186.1354 c -79.80942,-10.7457 -87.56178,-78.3849 -88.07771,-98.6487 -1.19926,-47.1024 -0.23567,-172.6924 0.005,-177.513 1.82688,-36.5751 35.3546,-42.2456 36.17668,-42.3792 20.72696,-3.3676 39.34375,5.9106 48.60499,25.7286 7.97597,17.0681 1.17684,147.5866 5.42857,169.608 4.95495,25.6664 20.21184,42.9752 52.35438,42.9752 37.13333,0 51.95988,-30.2128 52.06471,-35.974 0.3415,-18.7683 1.79357,-110.7978 1.67539,-166.4613 4.35895,-15.5932 13.80881,-30.3695 33.37163,-35.3801 19.82027,-5.076 46.30261,4.4669 54.10998,33.1182 -0.1948,82.8927 3.11124,238.1449 1.07361,251.6717 -4.78497,31.7649 -41.1735,34.2861 -54.20482,30.9772 -26.98249,-6.9734 -33.36,-17.8238 -36.02579,-44.4221 -0.20375,-2.0318 -33.75851,56.501 -106.55688,46.6997 z m 515.83873,0.5718 c -47.9802,-3.3403 -73.3789,-28.4002 -79.7076,-74.0153 -1.9955,-15.467 -0.5287,-165.1067 -2.0544,-166.0772 -2.0818,-1.3259 -15.4344,2.3729 -30.84436,-15.3186 -15.94033,-18.3004 -5.07245,-43.1639 4.10979,-51.0856 14.87727,-12.8348 22.43417,-6.7193 26.52357,-12.2838 0.8663,-1.1788 0.6035,-5.5717 0.4928,-17.6144 -0.2236,-24.2769 1.2368,-31.9874 8.0094,-42.2855 8.3616,-12.7147 24.3921,-23.0821 43.3039,-19.9788 16.8683,2.7677 28.4789,11.584 34.6707,26.3268 5.5361,17.7237 3.5746,37.4033 3.7915,55.8919 17.7499,2.0165 36.9025,-2.6949 54.072,3.6649 6.4485,2.3886 22.0807,5.7207 20.85,42.7325 -0.8614,25.905 -27.7134,29.4935 -30.8638,29.4943 l -43.9809,0.011 c -0.2738,21.1446 -1.4996,124.3105 -0.1518,137.4626 1.8017,20.8753 13.7204,23.2907 32.7189,24.2655 18.3742,-0.2987 34.8096,8.1072 41.0136,26.3706 4.0166,12.381 -0.6943,24.5346 -8.7799,34.0374 -17.9686,20.4335 -70.9821,18.5799 -73.1732,18.4079 z m -251.06433,-37.1351 c 0.0205,-20.1423 0.0249,-204.6412 0,-247.3404 -0.0106,-18.222 10.06764,-35.301 44.06065,-35.0483 35.98068,0.2675 44.03938,14.0588 44.06065,35.0483 0.0413,40.7919 0.56717,213.3774 0,247.3404 -0.43886,26.2795 -23.41135,34.5838 -44.06065,35.0483 -21.76651,0.4895 -44.08885,-7.3439 -44.06065,-35.0483 z m -741.17419,30.0414 c -26.663275,-2.9913 -37.065585,-17.8701 -38.591096,-44.782 -0.623123,-107.2458 -0.149811,-214.4997 0.03706,-321.7478 3.634625,-12.945 13.427855,-34.5068 38.554026,-37.0257 14.64359,-1.4681 114.2952,-1.6209 137.5895,0 83.87423,5.8358 133.27302,44.2271 162.32765,85.286 37.54281,52.1904 61.87296,162.0365 -13.21433,249.6397 -40.69564,47.479 -106.9373,67.5537 -149.11342,68.6298 -23.78597,0.6068 -126.713,1.2201 -137.58939,0 z m 127.63665,-80.2126 c 108.96213,-6.8501 134.0509,-113.4465 99.90539,-181.228 -42.63612,-73.1606 -104.69942,-62.1616 -176.06682,-62.201 -1.38561,124.0836 -0.59079,244.0815 -0.42353,244.2598 0.57506,0.6129 64.67848,-0.081 76.58497,-0.831 z m 657.59819,-260.2561 c -37.57163,0.097 -49.01654,-18.0401 -49.06754,-42.0579 -0.051,-24.0178 11.4865,-41.8583 49.06754,-42.0579 37.58104,-0.1996 49.09217,17.8327 49.06754,42.0579 -0.0246,24.2252 -11.49591,41.9607 -49.06754,42.0579 z"
       id="path2" />
  </g>
</svg>
